<?xml version="1.0" standalone="no"?>
<!DOCTYPE svg PUBLIC "-//W3C//DTD SVG 20010904//EN"
 "http://www.w3.org/TR/2001/REC-SVG-20010904/DTD/svg10.dtd">
<svg version="1.0" xmlns="http://www.w3.org/2000/svg"
 width="500.000000pt" height="500.000000pt" viewBox="0 0 500.000000 500.000000"
 preserveAspectRatio="xMidYMid meet">

<g transform="translate(0.000000,500.000000) scale(0.100000,-0.100000)"
fill="#000000" stroke="none">
<path d="M3013 3117 c-14 -30 9 -77 37 -77 24 0 25 8 5 34 -8 11 -15 28 -15
37 0 28 -16 31 -27 6z"/>
<path d="M3220 3105 c-5 -14 -14 -25 -20 -25 -5 0 -10 -17 -10 -37 0 -21 -6
-50 -14 -64 -7 -15 -11 -38 -9 -53 3 -14 -2 -41 -11 -60 -9 -19 -16 -38 -16
-44 0 -17 -41 -102 -49 -102 -5 0 -11 -8 -15 -17 -3 -10 -17 -38 -31 -63 -13
-25 -25 -57 -25 -71 0 -15 -7 -32 -15 -39 -8 -7 -15 -18 -15 -24 0 -6 -16 -29
-35 -50 -19 -22 -35 -50 -35 -64 0 -13 -9 -35 -20 -49 -11 -14 -20 -33 -20
-42 0 -9 -18 -34 -39 -55 -22 -22 -41 -51 -43 -65 -2 -14 -9 -25 -15 -24 -15
3 -17 -13 -3 -22 13 -8 13 -40 1 -63 -21 -38 -25 -55 -41 -157 -28 -176 -24
-205 19 -147 12 15 35 42 51 59 17 18 30 44 30 57 0 14 5 28 10 31 6 3 10 17
10 31 0 13 4 32 9 42 29 60 46 88 59 97 8 7 13 29 13 60 0 58 15 105 35 105 8
0 14 7 14 15 0 24 77 95 103 95 16 0 26 7 30 20 6 25 35 26 52 3 12 -17 14
-17 34 1 19 18 20 21 5 37 -9 10 -11 20 -6 23 21 12 31 177 18 264 -5 29 -3
49 5 58 7 9 13 53 14 111 1 85 -1 96 -17 101 -23 6 -23 28 -1 40 9 5 17 22 19
38 1 16 6 39 9 52 10 32 -23 30 -35 -3z"/>
<path d="M2010 2725 c0 -80 -7 -90 -43 -57 -28 25 -107 23 -144 -4 -94 -70
-91 -231 6 -288 44 -26 105 -24 142 3 l30 23 6 -21 c4 -17 13 -21 44 -21 l39
0 0 220 0 220 -40 0 -40 0 0 -75z m-55 -115 c32 -12 59 -72 50 -109 -26 -105
-165 -89 -165 19 0 33 6 48 29 71 32 31 45 34 86 19z"/>
<path d="M4120 2580 l0 -220 45 0 c39 0 45 3 45 20 0 20 0 20 30 -1 39 -29
110 -30 148 -2 97 72 90 243 -12 293 -55 26 -85 25 -130 -5 l-36 -24 0 79 0
80 -45 0 -45 0 0 -220z m203 29 c49 -22 63 -106 26 -153 -15 -19 -29 -26 -57
-26 -53 0 -82 31 -82 90 0 48 11 70 45 88 26 14 38 15 68 1z"/>
<path d="M220 2768 c-56 -28 -76 -77 -60 -139 13 -46 36 -64 110 -86 85 -24
110 -40 110 -68 0 -34 -35 -49 -94 -41 -24 4 -57 16 -71 28 l-27 21 -23 -29
c-28 -35 -21 -48 44 -77 54 -24 146 -25 189 -3 45 23 62 53 62 111 0 70 -24
93 -139 130 -36 12 -69 29 -75 38 -30 48 65 76 129 38 l34 -20 20 32 c25 39
16 52 -52 72 -69 21 -105 19 -157 -7z"/>
<path d="M1002 2669 c-25 -12 -49 -34 -59 -52 -20 -40 -20 -115 1 -156 37 -70
137 -94 194 -46 36 30 42 31 42 5 0 -34 -22 -68 -52 -81 -28 -11 -103 -8 -140
6 -12 5 -21 -2 -32 -23 l-16 -31 38 -12 c59 -21 171 -18 211 6 61 36 71 70 71
242 l0 153 -40 0 c-29 0 -40 -4 -40 -15 0 -20 -13 -19 -52 5 -42 25 -72 25
-126 -1z m150 -79 c25 -26 29 -36 24 -63 -18 -96 -166 -87 -166 10 0 78 85
109 142 53z"/>
<path d="M1454 2679 c-18 -5 -48 -27 -67 -48 -62 -69 -62 -154 1 -220 100
-105 271 -56 298 86 3 17 0 49 -6 70 -30 93 -127 141 -226 112z m124 -95 c31
-36 30 -97 -3 -129 -47 -48 -135 -21 -148 44 -20 97 87 157 151 85z"/>
<path d="M2307 2665 c-36 -25 -37 -25 -37 -5 0 17 -6 20 -40 20 l-40 0 0 -160
0 -160 40 0 40 0 0 103 c0 117 12 147 59 147 51 0 61 -24 61 -143 l0 -107 45
0 45 0 0 118 c0 91 -4 125 -18 152 -31 63 -93 77 -155 35z"/>
<path d="M2642 2680 c-59 -12 -62 -16 -50 -50 9 -26 13 -29 36 -23 74 19 126
3 134 -41 3 -17 -3 -19 -64 -17 -82 3 -122 -15 -137 -61 -24 -73 23 -132 103
-131 25 1 55 8 68 17 28 20 38 20 38 1 0 -11 11 -15 41 -15 l41 0 -4 123 c-4
132 -15 163 -63 185 -38 17 -94 22 -143 12z m122 -190 c8 -8 6 -19 -4 -38 -33
-58 -120 -52 -120 8 0 22 6 33 23 40 26 11 86 5 101 -10z"/>
<path d="M3771 2672 c-56 -28 -76 -64 -76 -135 0 -46 5 -69 20 -89 45 -61 141
-77 194 -32 l31 26 0 -32 c0 -47 -38 -80 -93 -80 -24 0 -59 5 -76 11 -35 12
-45 7 -55 -28 -6 -20 -1 -24 45 -37 95 -28 177 -15 226 36 l28 29 3 170 3 169
-40 0 c-30 0 -41 -4 -41 -15 0 -19 -3 -19 -47 5 -46 25 -78 25 -122 2z m144
-77 c52 -51 17 -135 -56 -135 -59 0 -86 32 -79 95 6 61 90 86 135 40z"/>
<path d="M4620 2668 c-63 -32 -90 -77 -90 -147 0 -92 52 -150 147 -166 85 -14
179 58 190 145 18 133 -125 231 -247 168z m128 -73 c36 -30 47 -70 32 -110
-14 -37 -38 -54 -77 -55 -45 0 -62 9 -78 41 -37 70 3 146 77 148 9 1 30 -10
46 -24z"/>
<path d="M550 2565 c0 -126 13 -175 50 -195 36 -20 87 -16 119 8 37 27 41 27
41 2 0 -17 7 -20 40 -20 l40 0 0 160 0 160 -39 0 -39 0 -4 -110 c-1 -60 -7
-113 -13 -119 -21 -20 -61 -23 -83 -4 -19 16 -22 28 -23 126 l-1 107 -44 0
-44 0 0 -115z"/>
<path d="M3320 2555 c0 -70 5 -135 11 -148 24 -53 113 -68 157 -27 12 11 24
20 27 20 3 0 5 -9 5 -20 0 -17 7 -20 45 -20 l45 0 0 160 0 160 -45 0 -45 0 0
-109 c0 -102 -2 -111 -22 -125 -30 -21 -54 -20 -78 4 -17 17 -20 33 -20 125
l0 105 -40 0 -40 0 0 -125z"/>
<path d="M3250 2375 c-8 -9 -8 -15 -2 -15 12 0 26 19 19 26 -2 2 -10 -2 -17
-11z"/>
</g>
</svg>
